<?xml version="1.0" encoding="UTF-8"?>
<svg width="13px" height="12px" viewBox="0 0 13 12" version="1.1" xmlns="http://www.w3.org/2000/svg" xmlns:xlink="http://www.w3.org/1999/xlink">
    <title>xinzeng</title>
    <defs>
        <filter color-interpolation-filters="auto" id="filter-1">
            <feColorMatrix in="SourceGraphic" type="matrix" values="0 0 0 0 0.000000 0 0 0 0 0.000000 0 0 0 0 0.000000 0 0 0 0.850000 0"></feColorMatrix>
        </filter>
    </defs>
    <g id="页面-1" stroke="none" stroke-width="1" fill="none" fill-rule="evenodd">
        <g id="E3【收件箱】文件夹标签展示" transform="translate(-227.000000, -395.000000)">
            <g id="邮箱" transform="translate(220.000000, 80.000000)">
                <g id="邮箱分组" transform="translate(0.000000, 81.000000)">
                    <g id="xinzeng" transform="translate(0.000000, 219.500000)" filter="url(#filter-1)">
                        <g transform="translate(8.000000, 15.000000)">
                            <path d="M1.10000001,0.785714286 C1.01664625,0.785714286 0.936706445,0.818826432 0.877766439,0.877766439 C0.818826432,0.936706445 0.785714286,1.01664625 0.785714286,1.10000001 L0.785714286,9.89999999 C0.785714286,9.98335375 0.818826432,10.0632936 0.877766439,10.1222336 C0.936706445,10.1811736 1.01664625,10.2142857 1.10000001,10.2142857 L9.89999999,10.2142857 C9.98335375,10.2142857 10.0632936,10.1811736 10.1222336,10.1222336 C10.1811736,10.0632936 10.2142857,9.98335375 10.2142857,9.89999999 L10.2142857,1.10000001 C10.2142857,1.01664625 10.1811736,0.936706445 10.1222336,0.877766439 C10.0632936,0.818826432 9.98335375,0.785714286 9.89999999,0.785714286 L1.10000001,0.785714286 Z M1.22222222,0 L9.77777778,0 C10.4527925,0 11,0.547207529 11,1.22222222 L11,9.77777778 C11,10.4527925 10.4527925,11 9.77777778,11 L1.22222222,11 C0.547207529,11 0,10.4527925 0,9.77777778 L0,1.22222222 C0,0.547207529 0.547207529,0 1.22222222,0 Z" id="形状" stroke="#979797" stroke-width="0.3" fill="#000000" fill-rule="nonzero"></path>
                            <path d="M2.45652174,6.16666667 C2.20439175,6.16666667 2,5.90549944 2,5.58333333 C2,5.26116723 2.20439175,5 2.45652174,5 L8.54347826,5 C8.79560825,5 9,5.26116723 9,5.58333333 C9,5.90549944 8.79560825,6.16666667 8.54347826,6.16666667 L2.45652174,6.16666667 L2.45652174,6.16666667 Z" id="路径" stroke="#979797" stroke-width="0.3" fill="#000000" fill-rule="nonzero"></path>
                            <path d="M5,2.45652174 C5,2.20439175 5.26116723,2 5.58333333,2 C5.90549944,2 6.16666667,2.20439175 6.16666667,2.45652174 L6.16666667,8.54347826 C6.16666667,8.79560825 5.90549944,9 5.58333333,9 C5.26116723,9 5,8.79560825 5,8.54347826 L5,2.45652174 L5,2.45652174 Z" id="路径" stroke="#979797" stroke-width="0.3" fill="#000000" fill-rule="nonzero"></path>
                        </g>
                    </g>
                </g>
            </g>
        </g>
    </g>
</svg>