<?xml version="1.0" encoding="UTF-8"?>
<svg width="28px" height="28px" viewBox="0 0 28 28" version="1.1" xmlns="http://www.w3.org/2000/svg" xmlns:xlink="http://www.w3.org/1999/xlink">
    <title>编组 9</title>
    <defs>
        <circle id="path-1" cx="13" cy="13" r="13"></circle>
        <filter color-interpolation-filters="auto" id="filter-3">
            <feColorMatrix in="SourceGraphic" type="matrix" values="0 0 0 0 1.000000 0 0 0 0 1.000000 0 0 0 0 1.000000 0 0 0 1.000000 0"></feColorMatrix>
        </filter>
    </defs>
    <g id="E-设置管理-个人中心-基本信息" stroke="none" stroke-width="1" fill="none" fill-rule="evenodd">
        <g id="E3-设置-个人中心-基本信息-标准版" transform="translate(-1376.000000, -16.000000)">
            <g id="person" transform="translate(1377.000000, 17.000000)">
                <mask id="mask-2" fill="white">
                    <use xlink:href="#path-1"></use>
                </mask>
                <use id="蒙版" stroke="#FF934A" stroke-width="1.25925926" fill="#FF934A" xlink:href="#path-1"></use>
                <g filter="url(#filter-3)">
                    <g mask="url(#mask-2)">
                        <g transform="translate(2.888889, 5.777778)" fill="#798893" fill-rule="nonzero" id="路径">
                            <path d="M20.1728395,18.4543284 C20.1272469,17.7221049 19.7587064,15.4746119 16.4684383,15.0303838 C12.8742192,14.5447446 12.1029438,13.140532 12.1029438,13.140532 L12.1029438,12.3913677 C13.0280943,11.7174962 13.6416951,10.5881027 14.0406306,9.35329921 C14.5535477,9.19518413 14.9904771,8.61731113 15.0987596,7.87002911 C15.1937443,7.21121624 15.003775,6.60699074 14.6485324,6.270055 C14.713122,5.62441839 14.7359183,5.03525147 14.7359183,4.56467085 C14.7359183,3.71009645 14.4927576,2.91387404 14.0767248,2.230591 C14.3901741,1.95953655 14.718821,1.55295492 14.8840943,0.961905646 C14.3388825,1.24425402 13.4821209,1.06919802 12.3708005,0.591088114 C11.6748316,0.203183305 10.8896881,-0.000384013334 10.091169,0 C8.86434006,-0.0049636323 7.68575439,0.473143648 6.81469268,1.32918041 C5.94363097,2.18521718 5.45144767,3.34905976 5.44641971,4.56467085 C5.44641971,5.02395754 5.46351695,5.59618356 5.51290896,6.22487926 C5.13297037,6.55052105 4.92210445,7.18109908 5.02088848,7.86814678 C5.12917097,8.61166415 5.56610035,9.18765484 6.07521808,9.34953458 C6.46465514,10.6125729 7.08585474,11.7664366 8.06989569,12.4346611 L8.06989569,13.140532 C8.06989569,13.140532 7.29862035,14.5447446 3.70440127,15.0303838 C0.414133059,15.4746119 0.045592636,17.7221049 0.00569907439,18.4562107 L0,19.1112589 C0,19.9903035 0.721883321,20.7037037 1.61473902,20.7037037 L18.5600002,20.7037037 C19.4490565,20.7037037 20.1728395,19.9903035 20.1728395,19.1112589 L20.1728395,18.452446 L20.1728395,18.4543284 Z"></path>
                        </g>
                    </g>
                </g>
            </g>
        </g>
    </g>
</svg>